<?xml version="1.0" encoding="utf-8"?>
<!-- Generator: Adobe Illustrator 24.1.0, SVG Export Plug-In . SVG Version: 6.00 Build 0)  -->
<svg version="1.1" xmlns="http://www.w3.org/2000/svg" xmlns:xlink="http://www.w3.org/1999/xlink" x="0px" y="0px"
	 viewBox="0 0 792 612" style="enable-background:new 0 0 792 612;" xml:space="preserve">
<style type="text/css">
	.st0{fill:#222323;}
	.st1{fill:none;}
	.st2{fill:#F2B2D1;}
	.st3{fill:#7C7DBB;stroke:#7C7DBB;stroke-width:0.8004;stroke-miterlimit:10;}
	.st4{fill:#7C7DBB;stroke:#7C7DBB;stroke-width:0.8236;stroke-miterlimit:10;}
	.st5{display:none;}
	.st6{fill:#7C7DBB;stroke:#7C7DBB;stroke-width:0.5356;stroke-miterlimit:10;}
	.st7{fill:#7C7DBB;stroke:#7C7DBB;stroke-width:0.5784;stroke-miterlimit:10;}
	.st8{fill:#7C7DBB;stroke:#7C7DBB;stroke-width:0.3038;stroke-miterlimit:10;}
	.st9{fill:#7C7DBB;stroke:#7C7DBB;stroke-width:0.3555;stroke-miterlimit:10;}
	.st10{display:none;fill:#38393D;}
	.st11{fill:#7C7DBB;stroke:#7C7DBB;stroke-width:2.2829;stroke-miterlimit:10;}
	.st12{fill:#7C7DBB;stroke:#7C7DBB;stroke-width:1.0557;stroke-miterlimit:10;}
	.st13{fill:#7C7DBB;stroke:#7C7DBB;stroke-width:1.9259;stroke-miterlimit:10;}
</style>
<g id="Capa_1">
</g>
<g id="Lineas_guia" class="st5">
</g>
<g id="Capa_2">
	<g>
		<path class="st11" d="M238.07,42.87l38.45,258.58h-68.72l-3.61-46.48h-24.05l-4.04,46.48h-69.52l34.3-258.58H238.07z
			 M202.44,209.13c-3.4-29.29-6.82-65.49-10.24-108.61c-6.85,49.51-11.15,85.72-12.9,108.61H202.44z"/>
		<path class="st11" d="M355.18,42.87V249.7h40.89v51.75H287.94V42.87H355.18z"/>
		<path class="st11" d="M412.36,42.87h112.12v51.75H479.6v49.03h42v49.19h-42v56.86h49.35v51.75H412.36V42.87z"/>
		<path class="st11" d="M684.59,42.87l-23.64,114.36l35.62,144.22h-62.29c-7.45-25.78-14.26-57.19-20.44-94.23
			c-1.69,16.41-4.06,33.76-7.09,52.07l-6.33,42.16h-65.48l24.44-144.22L534.94,42.87h65c1.18,7.12,3.52,18.99,7.01,35.6
			c2.82,12.66,5.11,24.32,6.89,34.99l14.37-70.59H684.59z"/>
	</g>
	<g>
		<path class="st2" d="M106.7,315.2h46.81c30.22,0,50.65,1.39,61.3,4.16c10.65,2.78,18.75,7.33,24.3,13.67
			c5.55,6.34,9.01,13.4,10.4,21.18c1.39,7.78,2.08,23.06,2.08,45.85v84.27c0,21.6-1.02,36.04-3.05,43.32
			c-2.03,7.28-5.57,12.98-10.63,17.09c-5.05,4.11-11.29,6.99-18.73,8.62s-18.63,2.45-33.59,2.45H106.7V315.2z M169.27,356.37v158.28
			c9.01,0,14.56-1.81,16.65-5.42c2.08-3.62,3.12-13.45,3.12-29.5v-93.48c0-10.9-0.35-17.88-1.04-20.96
			c-0.69-3.07-2.28-5.32-4.76-6.76C180.76,357.09,176.11,356.37,169.27,356.37z"/>
		<path class="st2" d="M276.16,315.2h104.33v48.15h-41.76v45.63h39.09v45.77h-39.09v52.91h45.92v48.15H276.16V315.2z"/>
		<path class="st2" d="M543.55,315.2v240.61h-54.84l-32.55-109.38v109.38h-52.31V315.2h52.31l35.07,108.34V315.2H543.55z"/>
		<path class="st2" d="M702.45,388.02h-58.11v-17.83c0-8.32-0.74-13.62-2.23-15.9c-1.49-2.28-3.96-3.42-7.43-3.42
			c-3.77,0-6.61,1.54-8.55,4.61c-1.93,3.07-2.9,7.73-2.9,13.98c0,8.03,1.08,14.08,3.26,18.14c2.07,4.07,7.97,8.97,17.68,14.71
			c27.85,16.53,45.39,30.1,52.63,40.7c7.23,10.6,10.85,27.69,10.85,51.27c0,17.14-2.01,29.77-6.02,37.9
			c-4.01,8.13-11.77,14.94-23.26,20.43c-11.5,5.5-24.87,8.25-40.13,8.25c-16.75,0-31.04-3.17-42.88-9.51
			c-11.84-6.34-19.59-14.42-23.26-24.22c-3.67-9.81-5.5-23.73-5.5-41.76v-15.75h58.11v29.28c0,9.02,0.82,14.81,2.45,17.39
			c1.63,2.58,4.53,3.86,8.69,3.86s7.26-1.63,9.29-4.9c2.03-3.27,3.05-8.12,3.05-14.56c0-14.17-1.93-23.43-5.8-27.79
			c-3.96-4.36-13.72-11.64-29.28-21.85c-15.56-10.3-25.86-17.78-30.91-22.44c-5.05-4.66-9.24-11.09-12.56-19.32
			c-3.32-8.22-4.98-18.73-4.98-31.51c0-18.43,2.35-31.9,7.06-40.42c4.7-8.52,12.31-15.18,22.81-19.99
			c10.5-4.8,23.18-7.21,38.05-7.21c16.25,0,30.09,2.63,41.54,7.88c11.44,5.25,19.02,11.87,22.74,19.84
			c3.71,7.98,5.57,21.53,5.57,40.65V388.02z"/>
	</g>
</g>
</svg>
