<svg xmlns="http://www.w3.org/2000/svg" viewBox="0 0 796.33 792"><defs><style>.cls-1{fill:#f2b2d1;}.cls-2{fill:#7c7dbb;stroke:#7c7dbb;stroke-miterlimit:10;stroke-width:1.93px;}</style></defs><g id="Capa_2" data-name="Capa 2"><path class="cls-1" d="M582.69,761s-29.57-53.44-29.28-64,10-7.68,10-7.68,21.32,4.27,27-7.39,5.12-15.35-5.12-15.06-14.78-13.27-14.78-13.27C561,627.11,556.82,640,549.62,629.76s-9.48-23.49-9.48-23.49c-8-32.22,23.5-88.88,23.5-88.88,26.44,2.27,37.81,5.4,71.35-1.42s17.91-56,15.06-72.77,5.69-19.33,6.83-32.41S646.64,400,646.64,400c11.37-5.83,2.56-17.2-1-21.75s-5.26-18.33-5.26-18.33,14.21-2.84,27.86-18.19-6.82-20.47-6.82-20.47-14.79-4-27.86-18.76-25-54.58-13.08-76.75-.38-16.67-10.23-47-9.1-55.33-9.1-55.33,29.57-9.85,19.71-37.9-34.87-33.35-55.33-25a203.65,203.65,0,0,1-40.18.76c-20.09-1.89-25.77-15.92-65.57-17,0,0-24.25-3-34.49-6.45s-33.73-15.54-54.57,4.55c0,0-6.35,9.19-15.45,10.33s-32.12,2.27-45.2,15.92-2.65,13.17-43.58,33.63-66.71,42.45-62.16,90.59,15.35,96.08,26.72,123.93,33,82.82,34.68,147.44c0,0,.57,51.83,10.8,61.21s8.53,10.51,7.11,25.86l-24.73-8s-2.65,10.13,6.63,35.53,4.93,36.76,4.93,36.76S207.62,653.62,210.29,761Z"/><path class="cls-2" d="M563.12,761s-29.57-53.44-29.28-64,9.95-7.68,9.95-7.68,21.32,4.27,27-7.39,5.12-15.35-5.11-15.06-14.79-13.27-14.79-13.27c-9.47-26.53-13.64-13.64-20.84-23.88s-9.48-23.49-9.48-23.49c-8-32.22,23.5-88.88,23.5-88.88,26.44,2.27,37.81,5.4,71.35-1.42s17.91-56,15.07-72.77,5.68-19.33,6.82-32.41S627.07,400,627.07,400c11.37-5.83,2.56-17.2-1-21.75s-5.26-18.33-5.26-18.33,14.21-2.84,27.86-18.19-6.82-20.47-6.82-20.47-14.79-4-27.86-18.76-25-54.58-13.08-76.75-.38-16.67-10.23-47-9.1-55.33-9.1-55.33,29.57-9.85,19.71-37.9-34.87-33.35-55.33-25a203.65,203.65,0,0,1-40.18.76c-20.09-1.89-25.77-15.92-65.57-17,0,0-24.25-3-34.49-6.45S372,22.21,351.16,42.3c0,0-6.35,9.19-15.45,10.33s-32.12,2.27-45.19,15.92-2.66,13.17-43.59,33.63-66.71,42.45-62.16,90.59,15.35,96.08,26.72,123.93,33,82.82,34.68,147.44c0,0,.57,51.83,10.8,61.21s8.53,10.51,7.11,25.86l-24.73-8s-2.65,10.13,6.63,35.53,4.93,36.76,4.93,36.76S188.05,653.62,190.72,761Z"/></g></svg>